<svg width="25" height="24" viewBox="0 0 25 24" fill="none" xmlns="http://www.w3.org/2000/svg">
<path d="M5.12109 17.3301H7.51367C7.80013 17.3301 8.03125 17.2422 8.20703 17.0664C8.38281 16.8906 8.4707 16.666 8.4707 16.3926V14.5859C8.4707 14.306 8.38281 14.0814 8.20703 13.9121C8.03125 13.7363 7.80013 13.6484 7.51367 13.6484H5.12109C4.83464 13.6484 4.60352 13.7363 4.42773 13.9121C4.25195 14.0814 4.16406 14.306 4.16406 14.5859V16.3926C4.16406 16.666 4.25195 16.8906 4.42773 17.0664C4.60352 17.2422 4.83464 17.3301 5.12109 17.3301ZM0.990234 9.89844H24.2129V7.56445H0.990234V9.89844ZM4.30078 20.4941C3.22005 20.4941 2.39648 20.2142 1.83008 19.6543C1.27018 19.0944 0.990234 18.2806 0.990234 17.2129V6.70508C0.990234 5.63737 1.27018 4.82357 1.83008 4.26367C2.39648 3.70378 3.22005 3.42383 4.30078 3.42383H20.9023C21.9896 3.42383 22.8132 3.70703 23.373 4.27344C23.9329 4.83333 24.2129 5.64388 24.2129 6.70508V17.2129C24.2129 18.2806 23.9329 19.0944 23.373 19.6543C22.8132 20.2142 21.9896 20.4941 20.9023 20.4941H4.30078Z" fill="white" fill-opacity="0.5"/>
</svg>
