<svg width="20" height="16" viewBox="0 0 20 16" fill="none" xmlns="http://www.w3.org/2000/svg">
<path d="M0.654297 8C0.654297 7.64844 0.784505 7.34896 1.04492 7.10156L7.43164 0.714844C7.56836 0.578125 7.70833 0.480469 7.85156 0.421875C8.0013 0.356771 8.15104 0.324219 8.30078 0.324219C8.65885 0.324219 8.94857 0.434896 9.16992 0.65625C9.39128 0.877604 9.50195 1.15104 9.50195 1.47656C9.50195 1.65234 9.46615 1.8151 9.39453 1.96484C9.32943 2.10807 9.24154 2.23503 9.13086 2.3457L6.94336 4.55273L3.47656 7.73633L3.02734 6.98438L6.58203 6.78906H18.1055C18.4766 6.78906 18.776 6.90299 19.0039 7.13086C19.2318 7.35221 19.3457 7.64193 19.3457 8C19.3457 8.36458 19.2318 8.66081 19.0039 8.88867C18.776 9.11003 18.4766 9.2207 18.1055 9.2207H6.58203L3.02734 9.01562L3.47656 8.2832L6.94336 11.4473L9.13086 13.6543C9.24154 13.765 9.32943 13.8919 9.39453 14.0352C9.46615 14.1784 9.50195 14.3411 9.50195 14.5234C9.50195 14.849 9.39128 15.1224 9.16992 15.3438C8.94857 15.5651 8.65885 15.6758 8.30078 15.6758C7.98828 15.6758 7.70508 15.5488 7.45117 15.2949L1.04492 8.89844C0.784505 8.65104 0.654297 8.35156 0.654297 8Z" fill="white" fill-opacity="0.9"/>
</svg>
