<svg width="14" height="12" viewBox="0 0 14 12" fill="none" xmlns="http://www.w3.org/2000/svg">
<path d="M7.65584 11.9545C7.43506 11.9545 7.25108 11.8831 7.1039 11.7402C6.96104 11.5974 6.88961 11.4155 6.88961 11.1948V8.71424H6.7013C5.8658 8.71424 5.12554 8.79649 4.48052 8.96099C3.8355 9.1255 3.26623 9.40905 2.77273 9.81164C2.27922 10.2099 1.84416 10.764 1.46753 11.474C1.35498 11.6818 1.22727 11.8138 1.08442 11.8701C0.945887 11.9264 0.807359 11.9545 0.668831 11.9545C0.495671 11.9545 0.339827 11.8787 0.201299 11.7272C0.0670996 11.58 0 11.3658 0 11.0844C0 9.88524 0.12987 8.80731 0.38961 7.85061C0.65368 6.88957 1.05628 6.06922 1.5974 5.38957C2.14286 4.70991 2.83766 4.19043 3.68182 3.83112C4.5303 3.47182 5.5368 3.29216 6.7013 3.29216H6.88961V0.837618C6.88961 0.621168 6.96104 0.435021 7.1039 0.279176C7.25108 0.123332 7.43939 0.0454102 7.66883 0.0454102C7.82468 0.0454102 7.96537 0.0822067 8.09091 0.1558C8.22078 0.225064 8.37229 0.341947 8.54545 0.506449L13.6688 5.29866C13.7944 5.41554 13.881 5.53459 13.9286 5.6558C13.9762 5.77701 14 5.89173 14 5.99996C14 6.10385 13.9762 6.21641 13.9286 6.33762C13.881 6.45883 13.7944 6.57788 13.6688 6.69476L8.54545 11.5324C8.38961 11.6796 8.24026 11.7857 8.0974 11.8506C7.95887 11.9199 7.81169 11.9545 7.65584 11.9545Z" fill="white"/>
</svg>
