<svg width="20" height="20" viewBox="0 0 20 20" fill="none" xmlns="http://www.w3.org/2000/svg">
<path d="M1.83008 10.916C1.45898 10.9095 1.14974 10.8281 0.902344 10.6719C0.661458 10.5091 0.482422 10.304 0.365234 10.0566C0.248047 9.80273 0.202474 9.53581 0.228516 9.25586C0.254557 8.9694 0.352214 8.70573 0.521484 8.46484C0.690755 8.21745 0.941406 8.01888 1.27344 7.86914L16.8984 0.671875C17.3477 0.470052 17.7611 0.388672 18.1387 0.427734C18.5163 0.460286 18.8255 0.59375 19.0664 0.828125C19.3073 1.05599 19.4505 1.35547 19.4961 1.72656C19.5482 2.09115 19.4701 2.5013 19.2617 2.95703L12.084 18.5234C11.9277 18.875 11.7227 19.1387 11.4688 19.3145C11.2148 19.4967 10.9447 19.6009 10.6582 19.627C10.3717 19.6595 10.1016 19.6172 9.84766 19.5C9.59375 19.3828 9.38867 19.2005 9.23242 18.9531C9.07617 18.7122 8.99805 18.4128 8.99805 18.0547L8.97852 11.0918C8.97852 10.9876 8.92643 10.9355 8.82227 10.9355L1.83008 10.916Z" fill="white" fill-opacity="0.5"/>
</svg>
