<svg width="32" height="32" viewBox="0 0 32 32" fill="none" xmlns="http://www.w3.org/2000/svg">
<g clip-path="url(#clip0_377_4054)">
<rect width="32" height="32" rx="8" fill="#FFF155"/>
<path d="M25.151 15.5507L22.0809 13.3183L27.2827 6.16448C28.4964 4.49527 27.8379 3.5 25.8247 3.94997L24.3724 4.27615L12.0829 7.03557C10.4002 7.40693 10.1664 8.54318 11.5574 9.55464L14.6276 11.7871L9.42578 18.9408C8.21203 20.6101 8.87054 21.6053 10.8837 21.1554L12.336 20.8292L24.6256 18.0698C26.3082 17.6984 26.5421 16.5621 25.151 15.5507Z" fill="black"/>
<path d="M20.4818 21.9721L17.4116 19.7396L22.6134 12.5859C23.8272 10.9167 23.1687 9.92139 21.1555 10.3714L19.7032 10.6975L7.4136 13.457C5.73098 13.8283 5.49715 14.9646 6.88816 15.976L9.95832 18.2085L4.75653 25.3622C3.54278 27.0314 4.20129 28.0267 6.21448 27.5767L7.66679 27.2506L19.9564 24.4911C21.639 24.1198 21.8728 22.9835 20.4818 21.9721Z" fill="black"/>
</g>
<defs>
<clipPath id="clip0_377_4054">
<rect width="32" height="32" rx="8" fill="white"/>
</clipPath>
</defs>
</svg>
