<svg width="148" height="57" viewBox="0 0 148 57" fill="none" xmlns="http://www.w3.org/2000/svg">
<g filter="url(#filter0_dd_7_1022)">
<g clip-path="url(#clip0_7_1022)">
<rect x="5" y="3" width="48" height="48" rx="12" fill="#FFF155"/>
<path d="M42.7261 26.326L38.1209 22.9773L45.9236 12.2467C47.7442 9.74284 46.7564 8.24994 43.7366 8.92489L41.5582 9.41416L23.1238 13.5533C20.5999 14.1103 20.2491 15.8147 22.3357 17.3319L26.9409 20.6805L19.1382 31.4112C17.3176 33.915 18.3054 35.4079 21.3251 34.733L23.5036 34.2437L41.938 30.1046C44.4619 29.5475 44.8126 27.8432 42.7261 26.326Z" fill="black"/>
<path d="M35.7225 35.9578L31.1172 32.6091L38.9199 21.8785C40.7405 19.3746 39.7528 17.8817 36.733 18.5567L34.5545 19.046L16.1202 23.1851C13.5962 23.7421 13.2455 25.4465 15.332 26.9637L19.9372 30.3124L12.1345 41.043C10.3139 43.5468 11.3017 45.0397 14.3215 44.3648L16.4999 43.8755L34.9343 39.7364C37.4582 39.1793 37.809 37.475 35.7225 35.9578Z" fill="black"/>
</g>
</g>
<path d="M129.843 13.9318L128.098 14.7875L125.375 19.1777L126.978 18.9551L124.95 22.2859L126.695 21.4301L129.415 17.024L127.833 17.2165L129.843 13.9318Z" fill="white" fill-opacity="0.9"/>
<path d="M142.171 11.6638L134.8 15.2794L123.277 33.8471L130.059 32.9038L121.481 46.9939L128.858 43.3736L140.039 24.7804L133.67 25.5566L142.171 11.6638Z" fill="#FFF155"/>
<path d="M73.9983 21.2695V21.489C73.9983 23.8337 72.9803 25.1253 71.1352 25.1253C70.7525 25.1355 70.3717 25.0676 70.0162 24.9256C69.6606 24.7837 69.3378 24.5707 69.0673 24.2997C68.2322 23.4583 67.7948 22.0076 67.8139 20.1004C67.8139 16.8396 69.0578 14.8942 71.1415 14.8942C73.0758 14.8942 73.957 16.6439 73.957 18.2743V18.4938H76.7088V18.2743C76.7088 14.9133 74.4724 12.6561 71.1415 12.6561C67.3494 12.6561 65 15.5082 65 20.1004C65 24.656 67.3494 27.4922 71.132 27.4922C74.598 27.4922 76.7518 25.1921 76.7518 21.489V21.2695H73.9983Z" fill="white" fill-opacity="0.9"/>
<path d="M85.9218 12.4766C83.5231 12.4766 82.0358 13.8398 81.3836 16.641H81.0496L82.2808 10.6824V7H79.5321V27.2363H82.2855V20.0243C82.3078 16.913 83.6249 14.7401 85.4859 14.7401C85.6948 14.7344 85.9027 14.7715 86.0966 14.8492C86.2906 14.9269 86.4666 15.0435 86.6137 15.1919C87.1211 15.7057 87.3915 16.6632 87.374 17.896V27.2427H90.1322V17.8896C90.1322 14.6017 88.4764 12.4766 85.9218 12.4766Z" fill="white" fill-opacity="0.9"/>
<path d="M105.185 24.8676C104.004 24.8676 103.732 24.5733 103.732 23.2881V17.8878C103.707 14.514 102.003 12.6561 98.9365 12.6561C95.7918 12.6561 93.988 14.5649 93.988 17.8894V18.1089H96.7398V17.8894C96.7398 15.8454 97.4381 14.8942 98.9365 14.8942C99.8909 14.8942 100.98 15.2346 100.98 17.8894L101.367 21.3968H101.13C100.036 19.9572 98.3798 19.0315 96.8798 19.0315C95.0362 19.0315 92.8824 20.1338 92.8824 23.2372C92.8824 25.8999 95.0585 27.4922 97.1629 27.4922C99.1751 27.4922 101.257 25.7202 101.882 23.5076H102.267C102.29 26.2531 102.77 27.2361 105.185 27.2361H105.403V24.8676H105.185ZM97.1629 25.1332C96.1003 25.1332 95.5834 24.5161 95.5834 23.2451C95.5834 21.7785 96.2626 20.9705 97.4922 20.9705C98.165 20.9705 99.2689 21.3379 100.381 22.3607C99.7398 24.3968 98.2557 25.1332 97.1629 25.1332Z" fill="white" fill-opacity="0.9"/>
<path d="M114.803 12.6561C112.207 12.6561 110.634 13.9605 110.001 16.6328H109.674L110.445 12.9059H106.744V15.1519H108.299L108.158 17.6444V27.2361H110.909V20.0225C110.909 16.6725 112.648 14.9196 114.366 14.9196C115.691 14.9196 116.256 16.146 116.256 19.0203V19.9588H118.96L118.98 19.7648C119.003 19.5173 119.012 19.2688 119.007 19.0203C119.007 14.794 117.593 12.6561 114.803 12.6561Z" fill="white" fill-opacity="0.9"/>
<path d="M75.6829 32.4138C73.9936 32.4138 72.9787 33.7388 72.5143 36.5782H72.1961C72.3125 36.0075 72.3727 35.4268 72.3759 34.8444C72.3759 33.3444 71.6505 32.4138 70.4846 32.4138C68.9337 32.4138 67.9634 33.645 67.351 36.3905H67.0329L67.8043 32.6636H65V34.9016H65.6569L65.5138 37.4069V46.9858H68.2672V39.9599C68.2672 35.6317 69.6304 34.6773 70.1553 34.6773C70.5387 34.6773 70.9141 34.9207 70.9141 37.8268V46.9938H73.4082V39.9599C73.4082 35.7908 74.5646 34.6773 75.247 34.6773C75.8133 34.6773 76.0551 35.619 76.0551 37.8268V46.9938H78.6797V37.6996C78.6797 34.1429 77.6998 32.4138 75.6829 32.4138Z" fill="white" fill-opacity="0.9"/>
<path d="M93.7367 44.3692C92.5564 44.3692 92.286 44.0734 92.286 42.7881V37.3815C92.259 34.0077 90.5554 32.1498 87.4902 32.1498C84.3439 32.1498 82.5401 34.0586 82.5401 37.3831V37.6026H85.2919V37.3831C85.2919 35.3407 85.9902 34.3895 87.4902 34.3895C88.4446 34.3895 89.5326 34.7299 89.5326 37.3831L89.9191 40.8921H89.6821C88.5893 39.4525 86.9319 38.5268 85.4335 38.5268C83.5883 38.5268 81.4346 39.6275 81.4346 42.7309C81.4346 45.3952 83.6106 46.9875 85.715 46.9875C87.7272 46.9875 89.8094 45.2139 90.4345 43.0013H90.8194C90.8417 45.7483 91.3221 46.7298 93.7367 46.7298H93.9499V44.3692H93.7367ZM85.715 44.6269C84.6525 44.6269 84.1355 44.0082 84.1355 42.7372C84.1355 41.2706 84.8147 40.4626 86.0443 40.4626C86.7171 40.4626 87.8195 40.83 88.9313 41.8528C88.2919 43.9032 86.8078 44.6269 85.715 44.6269Z" fill="white" fill-opacity="0.9"/>
<path d="M105.616 32.414H99.3042L99.4458 29.9342V28.3006H96.6923V29.9469L96.8339 32.414H93.8641V34.6521H96.8339L96.6923 37.1335V41.9946C96.6923 43.4627 97.1552 44.7289 98.0317 45.6531C98.4279 46.0777 98.9074 46.4161 99.4403 46.6471C99.9731 46.8781 100.548 46.9967 101.129 46.9956C104.043 46.9956 105.616 44.4187 105.616 41.993V41.7751H102.858V41.9946C102.858 43.0587 102.637 43.8143 102.199 44.2406C102.056 44.3772 101.886 44.4825 101.699 44.5496C101.513 44.6167 101.315 44.6442 101.118 44.6303C100.929 44.6424 100.741 44.6157 100.563 44.5516C100.386 44.4876 100.224 44.3876 100.087 44.2581C99.6573 43.8397 99.441 43.0794 99.441 41.9946V37.1208L99.301 34.6521H105.613L105.616 32.414Z" fill="white" fill-opacity="0.9"/>
<path d="M147.318 18.5066C147.318 15.0071 145.163 12.6561 141.956 12.6561C138.333 12.6561 136.082 15.5193 136.082 20.1322C136.082 24.7451 138.277 27.4985 141.956 27.4985C144.902 27.4985 146.711 25.8793 147.186 22.8141L147.226 22.5611H144.41L144.387 22.7473C144.185 24.4143 143.458 25.1332 141.956 25.1332C140.402 25.1332 139.282 24.7928 138.864 23.1561C138.802 22.903 138.763 22.6447 138.749 22.3846L138.636 20.6619H147.318V18.5066ZM141.956 14.8942C143.278 14.8942 144.092 15.5479 144.449 16.9048L144.994 18.5431H138.632L139.179 16.9016C139.602 15.6068 140.583 14.8942 141.956 14.8942Z" fill="white" fill-opacity="0.9"/>
<path d="M119.607 38.0064C119.607 34.507 117.452 32.156 114.245 32.156C110.622 32.156 108.371 35.0192 108.371 39.6321C108.371 44.245 110.566 47 114.245 47C117.193 47 119.001 45.3791 119.477 42.3139L119.515 42.061H116.696L116.673 42.2551C116.471 43.9221 115.744 44.641 114.242 44.641C112.688 44.641 111.568 44.3006 111.15 42.6623C111.088 42.4098 111.049 42.152 111.035 41.8924L110.922 40.1681H119.607V38.0064ZM114.245 34.3956C115.569 34.3956 116.382 35.0478 116.738 36.4046L117.283 38.0446H110.921L111.468 36.403C111.888 35.1082 112.879 34.3956 114.245 34.3956Z" fill="white" fill-opacity="0.9"/>
<path d="M134.324 12.9142C133.369 12.9142 132.66 13.1783 132.21 13.7096C131.669 14.3379 131.507 15.3225 131.717 16.7223L131.728 16.8034H131.388L131.349 16.6443C130.751 14.0611 129.138 12.6947 126.687 12.6947C123.697 12.6947 121.764 14.7292 121.764 17.8771C121.764 19.9768 122.623 21.4497 124.319 22.2594L123.059 23.9566C122.543 24.6612 122.264 25.3198 122.264 25.8654C122.264 26.5907 122.714 27.0902 123.471 27.2429L123.057 27.604C122.343 28.2402 121.98 28.8653 121.98 29.465C121.98 31.2927 125.073 32.3839 128.061 32.3839C132.105 32.3839 134.22 30.2953 134.22 28.2307C134.22 26.7418 133.107 25.0032 129.989 25.0032H125.09C125.036 25.0096 124.982 25.0022 124.932 24.9816C124.882 24.961 124.838 24.9279 124.804 24.8855C124.731 24.763 124.734 24.5881 124.896 24.3018L125.85 22.7763C126.63 22.9329 127.424 23.0081 128.219 23.0006C131.289 23.0006 133.066 21.9969 133.066 16.867C133.066 15.4943 133.347 15.2875 134.313 15.2875H134.79V12.9142H134.324ZM130.839 19.3294C130.839 19.7143 130.839 20.8834 128.101 20.8834C125.556 20.8834 124.258 19.8765 124.258 17.8898C124.258 16.5791 124.928 15.0489 126.816 15.0489C128.122 15.0489 129.348 15.8347 130.096 17.1486C130.583 18.0187 130.839 18.771 130.839 19.3294ZM128.076 30.0106C126.223 30.0106 124.802 29.6161 124.46 29.0069C124.325 28.7683 124.358 28.49 124.56 28.1591L125.114 27.2604L126.841 27.2365H129.49C130.737 27.2365 131.481 27.6628 131.481 28.3786C131.489 29.325 130.058 30.0106 128.076 30.0106Z" fill="white" fill-opacity="0.9"/>
<defs>
<filter id="filter0_dd_7_1022" x="0.5" y="0" width="57" height="57" filterUnits="userSpaceOnUse" color-interpolation-filters="sRGB">
<feFlood flood-opacity="0" result="BackgroundImageFix"/>
<feColorMatrix in="SourceAlpha" type="matrix" values="0 0 0 0 0 0 0 0 0 0 0 0 0 0 0 0 0 0 127 0" result="hardAlpha"/>
<feOffset dy="1.5"/>
<feGaussianBlur stdDeviation="1.5"/>
<feColorMatrix type="matrix" values="0 0 0 0 0.0627451 0 0 0 0 0.0941176 0 0 0 0 0.156863 0 0 0 0.06 0"/>
<feBlend mode="normal" in2="BackgroundImageFix" result="effect1_dropShadow_7_1022"/>
<feColorMatrix in="SourceAlpha" type="matrix" values="0 0 0 0 0 0 0 0 0 0 0 0 0 0 0 0 0 0 127 0" result="hardAlpha"/>
<feOffset dy="1.5"/>
<feGaussianBlur stdDeviation="2.25"/>
<feColorMatrix type="matrix" values="0 0 0 0 0.0627451 0 0 0 0 0.0941176 0 0 0 0 0.156863 0 0 0 0.1 0"/>
<feBlend mode="normal" in2="effect1_dropShadow_7_1022" result="effect2_dropShadow_7_1022"/>
<feBlend mode="normal" in="SourceGraphic" in2="effect2_dropShadow_7_1022" result="shape"/>
</filter>
<clipPath id="clip0_7_1022">
<rect x="5" y="3" width="48" height="48" rx="12" fill="white"/>
</clipPath>
</defs>
</svg>
