<svg width="178" height="32" viewBox="0 0 178 32" fill="none" xmlns="http://www.w3.org/2000/svg">
<g clip-path="url(#clip0_52_90347)">
<rect width="32" height="32" rx="8" fill="#FFF155"/>
<path d="M25.1511 15.5507L22.081 13.3183L27.2827 6.16448C28.4965 4.49527 27.838 3.5 25.8248 3.94997L24.3725 4.27615L12.0829 7.03557C10.4003 7.40693 10.1665 8.54317 11.5575 9.55464L14.6276 11.7871L9.42584 18.9408C8.21209 20.6101 8.8706 21.6053 10.8838 21.1554L12.3361 20.8292L24.6257 18.0698C26.3083 17.6984 26.5421 16.5621 25.1511 15.5507Z" fill="black"/>
<path d="M20.4818 21.9721L17.4116 19.7396L22.6134 12.5859C23.8272 10.9167 23.1687 9.92139 21.1555 10.3714L19.7032 10.6975L7.41361 13.457C5.73098 13.8283 5.49715 14.9646 6.88816 15.976L9.95832 18.2085L4.75653 25.3622C3.54278 27.0314 4.20129 28.0267 6.21448 27.5767L7.66679 27.2506L19.9564 24.4911C21.639 24.1198 21.8728 22.9835 20.4818 21.9721Z" fill="black"/>
</g>
<g clip-path="url(#clip1_52_90347)">
<mask id="mask0_52_90347" style="mask-type:luminance" maskUnits="userSpaceOnUse" x="0" y="0" width="32" height="32">
<path d="M24 0H8C3.58172 0 0 3.58172 0 8V24C0 28.4183 3.58172 32 8 32H24C28.4183 32 32 28.4183 32 24V8C32 3.58172 28.4183 0 24 0Z" fill="white"/>
</mask>
<g mask="url(#mask0_52_90347)">
<path d="M24 0H8C3.58172 0 0 3.58172 0 8V24C0 28.4183 3.58172 32 8 32H24C28.4183 32 32 28.4183 32 24V8C32 3.58172 28.4183 0 24 0Z" fill="#FFF155"/>
<path d="M25.1511 15.5507L22.081 13.3183L27.2827 6.16449C28.4965 4.49528 27.838 3.50001 25.8248 3.94998L24.3725 4.27616L12.0829 7.03558C10.4003 7.40694 10.1665 8.54318 11.5575 9.55465L14.6276 11.7871L9.42584 18.9408C8.21209 20.6101 8.8706 21.6053 10.8838 21.1554L12.3361 20.8292L24.6257 18.0698C26.3083 17.6984 26.5421 16.5621 25.1511 15.5507Z" fill="black"/>
<path d="M20.4818 21.9721L17.4116 19.7396L22.6134 12.5859C23.8272 10.9167 23.1687 9.92137 21.1555 10.3714L19.7032 10.6975L7.41361 13.457C5.73098 13.8283 5.49715 14.9646 6.88816 15.976L9.95832 18.2085L4.75653 25.3622C3.54278 27.0314 4.20129 28.0267 6.21448 27.5767L7.66679 27.2506L19.9564 24.4911C21.639 24.1198 21.8728 22.9835 20.4818 21.9721Z" fill="black"/>
</g>
</g>
<g clip-path="url(#clip2_52_90347)">
<path d="M103.286 10.3374L101.69 11.1198L99.2006 15.1337L100.667 14.9301L98.8123 17.9755L100.408 17.193L102.895 13.1646L101.447 13.3406L103.286 10.3374Z" fill="#FFF155"/>
<path d="M52.2273 17.0465V17.2472C52.2273 19.3909 51.2965 20.5718 49.6095 20.5718C49.2596 20.5811 48.9115 20.519 48.5865 20.3892C48.2614 20.2594 47.9662 20.0647 47.7189 19.817C46.9554 19.0476 46.5555 17.7213 46.5729 15.9776C46.5729 12.9962 47.7102 11.2176 49.6154 11.2176C51.3838 11.2176 52.1895 12.8174 52.1895 14.308V14.5087H54.7055V14.308C54.7055 11.2351 52.6607 9.17139 49.6154 9.17139C46.1483 9.17139 44.0002 11.779 44.0002 15.9776C44.0002 20.1427 46.1483 22.7358 49.6066 22.7358C52.7756 22.7358 54.7447 20.6328 54.7447 17.2472V17.0465H52.2273Z" fill="white" fill-opacity="0.9"/>
<path d="M63.1282 9.00721C60.9351 9.00721 59.5753 10.2536 58.9791 12.8146H58.6737L59.7993 7.36674V4H57.2863V22.5018H59.8037V15.9079C59.824 13.0633 61.0282 11.0767 62.7298 11.0767C62.9207 11.0714 63.1108 11.1053 63.2881 11.1764C63.4655 11.2474 63.6264 11.3541 63.7609 11.4897C64.2248 11.9595 64.472 12.835 64.456 13.9621V22.5076H66.9778V13.9562C66.9778 10.9502 65.4639 9.00721 63.1282 9.00721Z" fill="white" fill-opacity="0.9"/>
<path d="M80.7405 20.3362C79.6614 20.3362 79.4127 20.0671 79.4127 18.892V13.9546C79.3894 10.87 77.8318 9.17139 75.0279 9.17139C72.1527 9.17139 70.5035 10.9166 70.5035 13.9561V14.1568H73.0195V13.9561C73.0195 12.0873 73.658 11.2176 75.0279 11.2176C75.9005 11.2176 76.8967 11.5288 76.8967 13.9561L77.2501 17.1628H77.0334C76.0329 15.8467 74.5189 15.0003 73.1475 15.0003C71.4619 15.0003 69.4928 16.0081 69.4928 18.8455C69.4928 21.28 71.4823 22.7358 73.4064 22.7358C75.2461 22.7358 77.1498 21.1157 77.7213 19.0927H78.0733C78.0936 21.6029 78.5328 22.5016 80.7405 22.5016H80.9397V20.3362H80.7405ZM73.4064 20.579C72.4349 20.579 71.9622 20.0148 71.9622 18.8528C71.9622 17.5119 72.5832 16.7731 73.7074 16.7731C74.3226 16.7731 75.3319 17.109 76.3484 18.0442C75.7624 19.9057 74.4055 20.579 73.4064 20.579Z" fill="white" fill-opacity="0.9"/>
<path d="M89.5348 9.17139C87.1613 9.17139 85.723 10.3639 85.1442 12.8072H84.8446L85.55 9.39971H82.1658V11.4532H83.5881L83.4587 13.7321V22.5016H85.9746V15.9063C85.9746 12.8435 87.5642 11.2409 89.1349 11.2409C90.3463 11.2409 90.8626 12.3622 90.8626 14.9901V15.8481H93.3349L93.3538 15.6707C93.3746 15.4445 93.3829 15.2173 93.3785 14.9901C93.3785 11.126 92.0857 9.17139 89.5348 9.17139Z" fill="white" fill-opacity="0.9"/>
<path d="M136.541 8.90332C134.997 8.90332 134.069 10.1148 133.644 12.7107H133.353C133.46 12.1889 133.515 11.658 133.518 11.1255C133.518 9.75409 132.855 8.90332 131.789 8.90332C130.371 8.90332 129.483 10.029 128.924 12.5391H128.633L129.338 9.13165H126.774V11.1779H127.375L127.244 13.4684V22.2263H129.761V15.8026C129.761 11.8454 131.008 10.9728 131.487 10.9728C131.838 10.9728 132.181 11.1953 132.181 13.8524V22.2336H134.462V15.8026C134.462 11.9908 135.519 10.9728 136.143 10.9728C136.66 10.9728 136.882 11.8338 136.882 13.8524V22.2336H139.281V13.736C139.281 10.4842 138.385 8.90332 136.541 8.90332Z" fill="white" fill-opacity="0.9"/>
<path d="M153.048 19.8342C151.969 19.8342 151.722 19.5637 151.722 18.3886V13.4454C151.697 10.3607 150.14 8.66211 147.337 8.66211C144.46 8.66211 142.811 10.4073 142.811 13.4468V13.6475H145.327V13.4468C145.327 11.5795 145.966 10.7098 147.337 10.7098C148.21 10.7098 149.204 11.021 149.204 13.4468L149.558 16.655H149.341C148.342 15.3389 146.827 14.4925 145.457 14.4925C143.77 14.4925 141.801 15.4988 141.801 18.3362C141.801 20.7722 143.79 22.228 145.714 22.228C147.554 22.228 149.458 20.6064 150.029 18.5834H150.381C150.401 21.095 150.841 21.9924 153.048 21.9924H153.243V19.8342H153.048ZM145.714 20.0698C144.743 20.0698 144.27 19.504 144.27 18.342C144.27 17.0012 144.891 16.2624 146.015 16.2624C146.63 16.2624 147.638 16.5983 148.655 17.5334C148.07 19.408 146.713 20.0698 145.714 20.0698Z" fill="white" fill-opacity="0.9"/>
<path d="M163.909 8.90392H158.138L158.268 6.63665V5.14307H155.75V6.64828L155.88 8.90392H153.164V10.9501H155.88L155.75 13.2189V17.6633C155.75 19.0056 156.173 20.1632 156.975 21.0082C157.337 21.3964 157.775 21.7058 158.262 21.917C158.75 22.1282 159.275 22.2366 159.806 22.2356C162.47 22.2356 163.909 19.8796 163.909 17.6618V17.4626H161.387V17.6633C161.387 18.6362 161.185 19.327 160.785 19.7168C160.654 19.8417 160.498 19.938 160.328 19.9993C160.158 20.0607 159.977 20.0858 159.796 20.0731C159.624 20.0842 159.451 20.0597 159.289 20.0011C159.127 19.9426 158.979 19.8512 158.854 19.7328C158.461 19.3503 158.263 18.6551 158.263 17.6633V13.2072L158.135 10.9501H163.906L163.909 8.90392Z" fill="white" fill-opacity="0.9"/>
<path d="M119.263 14.5204C119.263 11.3209 117.292 9.17139 114.36 9.17139C111.047 9.17139 108.989 11.7892 108.989 16.0067C108.989 20.2242 110.996 22.7416 114.36 22.7416C117.054 22.7416 118.707 21.2611 119.142 18.4586L119.178 18.2274H116.604L116.582 18.3976C116.398 19.9217 115.733 20.579 114.36 20.579C112.939 20.579 111.915 20.2678 111.533 18.7713C111.476 18.54 111.441 18.3038 111.428 18.066L111.325 16.491H119.263V14.5204ZM114.36 11.2176C115.569 11.2176 116.313 11.8153 116.639 13.0559L117.138 14.5538H111.321L111.821 13.053C112.208 11.8691 113.105 11.2176 114.36 11.2176Z" fill="white" fill-opacity="0.9"/>
<path d="M176.701 14.0165C176.701 10.817 174.73 8.66748 171.798 8.66748C168.485 8.66748 166.427 11.2852 166.427 15.5028C166.427 19.7203 168.434 22.2391 171.798 22.2391C174.493 22.2391 176.147 20.7572 176.582 17.9547L176.616 17.7235H174.039L174.018 17.9009C173.833 19.425 173.168 20.0824 171.795 20.0824C170.375 20.0824 169.351 19.7712 168.968 18.2732C168.911 18.0424 168.876 17.8067 168.863 17.5693L168.76 15.9929H176.701V14.0165ZM171.798 10.7152C173.008 10.7152 173.751 11.3114 174.077 12.552L174.576 14.0514H168.759L169.259 12.5505C169.643 11.3667 170.549 10.7152 171.798 10.7152Z" fill="white" fill-opacity="0.9"/>
<path d="M107.382 9.40724C106.509 9.40724 105.861 9.64865 105.449 10.1344C104.955 10.7089 104.806 11.6091 104.998 12.8889L105.009 12.963H104.697L104.662 12.8176C104.116 10.4558 102.641 9.20654 100.4 9.20654C97.6657 9.20654 95.8987 11.0666 95.8987 13.9447C95.8987 15.8644 96.684 17.2111 98.2343 17.9513L97.0825 19.5031C96.6113 20.1474 96.3553 20.7494 96.3553 21.2483C96.3553 21.9114 96.7669 22.3681 97.4592 22.5077L97.081 22.8378C96.4281 23.4196 96.0965 23.9911 96.0965 24.5394C96.0965 26.2104 98.9237 27.2081 101.656 27.2081C105.353 27.2081 107.287 25.2985 107.287 23.4108C107.287 22.0496 106.269 20.46 103.419 20.46H98.9397C98.8905 20.4659 98.8406 20.459 98.7948 20.4402C98.749 20.4214 98.7087 20.3912 98.6779 20.3524C98.611 20.2404 98.6139 20.0805 98.7622 19.8187L99.6348 18.424C100.348 18.5672 101.073 18.6359 101.8 18.629C104.607 18.629 106.232 17.7114 106.232 13.0212C106.232 11.7661 106.489 11.5771 107.372 11.5771H107.808V9.40724H107.382ZM104.196 15.2725C104.196 15.6244 104.196 16.6934 101.693 16.6934C99.3658 16.6934 98.1791 15.7728 98.1791 13.9563C98.1791 12.758 98.7913 11.3589 100.518 11.3589C101.712 11.3589 102.833 12.0774 103.516 13.2786C103.961 14.0741 104.196 14.762 104.196 15.2725ZM101.669 25.0382C99.9751 25.0382 98.6764 24.6775 98.3637 24.1205C98.2401 23.9024 98.2707 23.6479 98.4554 23.3454L98.9615 22.5237L100.541 22.5019H102.962C104.102 22.5019 104.783 22.8916 104.783 23.5461C104.79 24.4114 103.481 25.0382 101.669 25.0382Z" fill="white" fill-opacity="0.9"/>
</g>
<defs>
<clipPath id="clip0_52_90347">
<rect width="32" height="32" rx="8" fill="white"/>
</clipPath>
<clipPath id="clip1_52_90347">
<rect width="32" height="32" fill="white"/>
</clipPath>
<clipPath id="clip2_52_90347">
<rect width="133.714" height="24" fill="white" transform="translate(44 4)"/>
</clipPath>
</defs>
</svg>
