<svg width="24" height="24" viewBox="0 0 24 24" fill="none" xmlns="http://www.w3.org/2000/svg">
<path d="M4.21289 22.5547C3.80924 22.5547 3.54883 22.4277 3.43164 22.1738C3.31445 21.9264 3.36979 21.6562 3.59766 21.3633C3.73438 21.194 3.91667 20.9727 4.14453 20.6992C4.3724 20.4258 4.61003 20.1263 4.85742 19.8008C5.10482 19.4753 5.32617 19.1497 5.52148 18.8242C5.56706 18.7266 5.57682 18.6419 5.55078 18.5703C5.52474 18.4922 5.46289 18.4271 5.36523 18.375C4.28451 17.7891 3.36003 17.0924 2.5918 16.2852C1.83008 15.4714 1.2474 14.5859 0.84375 13.6289C0.446615 12.6654 0.248047 11.6595 0.248047 10.6113C0.248047 9.32227 0.544271 8.11784 1.13672 6.99805C1.72917 5.87826 2.54948 4.89518 3.59766 4.04883C4.64583 3.20247 5.86328 2.54167 7.25 2.06641C8.64323 1.58464 10.1374 1.34375 11.7324 1.34375C13.321 1.34375 14.8086 1.58464 16.1953 2.06641C17.5885 2.54167 18.8092 3.20247 19.8574 4.04883C20.9121 4.89518 21.7324 5.87826 22.3184 6.99805C22.9108 8.11784 23.207 9.32227 23.207 10.6113C23.207 11.7051 23.0085 12.7272 22.6113 13.6777C22.2207 14.6283 21.6576 15.4844 20.9219 16.2461C20.1862 17.0013 19.3073 17.6491 18.2852 18.1895C17.2695 18.7298 16.14 19.1432 14.8965 19.4297C13.653 19.7161 12.3249 19.8626 10.9121 19.8691C10.8665 19.8691 10.8145 19.8659 10.7559 19.8594C10.7038 19.8594 10.6484 19.8561 10.5898 19.8496C10.5052 19.8496 10.4206 19.8626 10.3359 19.8887C10.2513 19.9147 10.1602 19.9635 10.0625 20.0352C9.60026 20.3607 9.09245 20.6732 8.53906 20.9727C7.99219 21.2721 7.44206 21.5423 6.88867 21.7832C6.3418 22.0241 5.83398 22.2129 5.36523 22.3496C4.89648 22.4863 4.51237 22.5547 4.21289 22.5547Z" fill="white" fill-opacity="0.5"/>
</svg>
