<svg width="49" height="48" viewBox="0 0 49 48" fill="none" xmlns="http://www.w3.org/2000/svg">
<rect x="0.5" width="48" height="48" rx="24" fill="#59B896" fill-opacity="0.2"/>
<path d="M21.5 29L24.5 32M24.5 32L27.5 29M24.5 32V25M34.5 21H14.5M18 30H17.7C16.5799 30 16.0198 30 15.592 29.782C15.2157 29.5903 14.9097 29.2843 14.718 28.908C14.5 28.4802 14.5 27.9201 14.5 26.8V19.2C14.5 18.0799 14.5 17.5198 14.718 17.092C14.9097 16.7157 15.2157 16.4097 15.592 16.218C16.0198 16 16.5799 16 17.7 16H31.3C32.4201 16 32.9802 16 33.408 16.218C33.7843 16.4097 34.0903 16.7157 34.282 17.092C34.5 17.5198 34.5 18.0799 34.5 19.2V26.8C34.5 27.9201 34.5 28.4802 34.282 28.908C34.0903 29.2843 33.7843 29.5903 33.408 29.782C32.9802 30 32.4201 30 31.3 30H31" stroke="#59B896" stroke-width="2" stroke-linecap="round" stroke-linejoin="round"/>
</svg>
