<svg width="24" height="24" viewBox="0 0 24 24" fill="none" xmlns="http://www.w3.org/2000/svg">
<path d="M3.07422 8.94141C2.35156 8.94141 1.99023 8.57357 1.99023 7.83789V5.48438C1.99023 4.41667 2.27018 3.60286 2.83008 3.04297C3.39648 2.48307 4.22005 2.20312 5.30078 2.20312H7.6543C8.38997 2.20312 8.75781 2.56445 8.75781 3.28711C8.75781 4.01628 8.38997 4.38086 7.6543 4.38086H5.47656C5.04688 4.38086 4.7181 4.49154 4.49023 4.71289C4.26888 4.92773 4.1582 5.25977 4.1582 5.70898V7.83789C4.1582 8.57357 3.79688 8.94141 3.07422 8.94141ZM20.418 8.94141C19.6953 8.94141 19.334 8.57357 19.334 7.83789V5.70898C19.334 5.25977 19.2201 4.92773 18.9922 4.71289C18.7643 4.49154 18.4388 4.38086 18.0156 4.38086H15.8379C15.1087 4.38086 14.7441 4.01628 14.7441 3.28711C14.7441 2.56445 15.1087 2.20312 15.8379 2.20312H18.2012C19.2819 2.20312 20.1022 2.48307 20.6621 3.04297C21.2285 3.60286 21.5117 4.41667 21.5117 5.48438V7.83789C21.5117 8.57357 21.1471 8.94141 20.418 8.94141ZM5.30078 21.7246C4.22005 21.7246 3.39648 21.4447 2.83008 20.8848C2.27018 20.3249 1.99023 19.5111 1.99023 18.4434V16.0801C1.99023 15.3509 2.35156 14.9863 3.07422 14.9863C3.79688 14.9863 4.1582 15.3509 4.1582 16.0801V18.2188C4.1582 18.668 4.26888 19 4.49023 19.2148C4.7181 19.4362 5.04688 19.5469 5.47656 19.5469H7.6543C8.38997 19.5469 8.75781 19.9115 8.75781 20.6406C8.75781 21.3633 8.38997 21.7246 7.6543 21.7246H5.30078ZM15.8379 21.7246C15.1087 21.7246 14.7441 21.3633 14.7441 20.6406C14.7441 19.9115 15.1087 19.5469 15.8379 19.5469H18.0156C18.4388 19.5469 18.7643 19.4362 18.9922 19.2148C19.2201 19 19.334 18.668 19.334 18.2188V16.0801C19.334 15.3509 19.6953 14.9863 20.418 14.9863C21.1471 14.9863 21.5117 15.3509 21.5117 16.0801V18.4434C21.5117 19.5111 21.2285 20.3249 20.6621 20.8848C20.1022 21.4447 19.2819 21.7246 18.2012 21.7246H15.8379ZM7.51758 16.6172C7.39388 16.6172 7.28971 16.5781 7.20508 16.5C7.12695 16.4219 7.08789 16.321 7.08789 16.1973V12.8086C7.08789 12.6849 7.12695 12.584 7.20508 12.5059C7.28971 12.4277 7.39388 12.3887 7.51758 12.3887H10.8965C11.0202 12.3887 11.1211 12.4277 11.1992 12.5059C11.2839 12.584 11.3262 12.6849 11.3262 12.8086V16.1973C11.3262 16.321 11.2839 16.4219 11.1992 16.5C11.1211 16.5781 11.0202 16.6172 10.8965 16.6172H7.51758ZM7.9375 15.7773H10.4766V13.2285H7.9375V15.7773ZM8.67969 15.0254V13.9707H9.73438V15.0254H8.67969ZM7.51758 11.5391C7.39388 11.5391 7.28971 11.5 7.20508 11.4219C7.12695 11.3372 7.08789 11.2363 7.08789 11.1191V7.73047C7.08789 7.61328 7.12695 7.51237 7.20508 7.42773C7.28971 7.3431 7.39388 7.30078 7.51758 7.30078H10.8965C11.0202 7.30078 11.1211 7.3431 11.1992 7.42773C11.2839 7.51237 11.3262 7.61328 11.3262 7.73047V11.1191C11.3262 11.2363 11.2839 11.3372 11.1992 11.4219C11.1211 11.5 11.0202 11.5391 10.8965 11.5391H7.51758ZM7.9375 10.6895H10.4766V8.15039H7.9375V10.6895ZM8.67969 9.95703V8.89258H9.73438V9.95703H8.67969ZM12.5859 11.5391C12.4688 11.5391 12.3678 11.5 12.2832 11.4219C12.2051 11.3372 12.166 11.2363 12.166 11.1191V7.73047C12.166 7.61328 12.2051 7.51237 12.2832 7.42773C12.3678 7.3431 12.4688 7.30078 12.5859 7.30078H15.9844C16.1016 7.30078 16.1992 7.3431 16.2773 7.42773C16.362 7.51237 16.4043 7.61328 16.4043 7.73047V11.1191C16.4043 11.2363 16.362 11.3372 16.2773 11.4219C16.1992 11.5 16.1016 11.5391 15.9844 11.5391H12.5859ZM13.0059 10.6895H15.5547V8.15039H13.0059V10.6895ZM13.7578 9.95703V8.89258H14.8125V9.95703H13.7578ZM12.2832 16.5V15.4355H13.3477V16.5H12.2832ZM15.2227 16.5V15.4355H16.2871V16.5H15.2227ZM13.7578 15.0254V13.9707H14.8125V15.0254H13.7578ZM12.2832 13.5605V12.5059H13.3477V13.5605H12.2832ZM15.2227 13.5605V12.5059H16.2871V13.5605H15.2227Z" fill="white" fill-opacity="0.5"/>
</svg>
