<svg width="20" height="16" viewBox="0 0 20 16" fill="none" xmlns="http://www.w3.org/2000/svg">
<path d="M19.3457 8C19.3457 8.35156 19.2155 8.65104 18.9551 8.89844L12.5684 15.2852C12.4316 15.4219 12.2917 15.5195 12.1484 15.5781C11.9987 15.6432 11.849 15.6758 11.6992 15.6758C11.3411 15.6758 11.0514 15.5651 10.8301 15.3438C10.6087 15.1224 10.498 14.849 10.498 14.5234C10.498 14.3477 10.5339 14.1849 10.6055 14.0352C10.6706 13.8919 10.7585 13.765 10.8691 13.6543L13.0566 11.4473L16.5234 8.26367L16.9727 9.01562L13.418 9.21094L1.89453 9.21094C1.52344 9.21094 1.22396 9.097 0.996094 8.86914C0.768229 8.64779 0.654297 8.35807 0.654297 8C0.654297 7.63542 0.768229 7.33919 0.996094 7.11133C1.22396 6.88997 1.52344 6.7793 1.89453 6.7793L13.418 6.7793L16.9727 6.98438L16.5234 7.7168L13.0566 4.55273L10.8691 2.3457C10.7585 2.23503 10.6706 2.10807 10.6055 1.96484C10.5339 1.82161 10.498 1.65885 10.498 1.47656C10.498 1.15104 10.6087 0.877604 10.8301 0.65625C11.0514 0.434896 11.3411 0.324219 11.6992 0.324219C12.0117 0.324219 12.2949 0.451172 12.5488 0.705078L18.9551 7.10156C19.2155 7.34896 19.3457 7.64844 19.3457 8Z" fill="white" fill-opacity="0.9"/>
</svg>
