<svg width="49" height="48" viewBox="0 0 49 48" fill="none" xmlns="http://www.w3.org/2000/svg">
<rect x="0.5" width="48" height="48" rx="24" fill="white" fill-opacity="0.2"/>
<path d="M21.5 21H21.51M27.5 27H27.51M28.5 20L20.5 28M34.5 24C34.5 29.5228 30.0228 34 24.5 34C18.9772 34 14.5 29.5228 14.5 24C14.5 18.4772 18.9772 14 24.5 14C30.0228 14 34.5 18.4772 34.5 24ZM22 21C22 21.2761 21.7761 21.5 21.5 21.5C21.2239 21.5 21 21.2761 21 21C21 20.7239 21.2239 20.5 21.5 20.5C21.7761 20.5 22 20.7239 22 21ZM28 27C28 27.2761 27.7761 27.5 27.5 27.5C27.2239 27.5 27 27.2761 27 27C27 26.7239 27.2239 26.5 27.5 26.5C27.7761 26.5 28 26.7239 28 27Z" stroke="white" stroke-opacity="0.9" stroke-width="2" stroke-linecap="round" stroke-linejoin="round"/>
</svg>
