<svg width="24" height="24" viewBox="0 0 24 24" fill="none" xmlns="http://www.w3.org/2000/svg">
<path d="M10.8574 22.4473C10.5449 22.4473 10.2747 22.3594 10.0469 22.1836C9.82552 22.0078 9.67904 21.7637 9.60742 21.4512L9.12891 19.4297C8.97917 19.3776 8.82943 19.3223 8.67969 19.2637C8.53646 19.2051 8.39974 19.1465 8.26953 19.0879L6.51172 20.1719C6.2513 20.3346 5.97786 20.403 5.69141 20.377C5.40495 20.3509 5.15104 20.2272 4.92969 20.0059L3.67969 18.7656C3.46484 18.5443 3.34115 18.2871 3.30859 17.9941C3.28255 17.6947 3.35742 17.4147 3.5332 17.1543L4.59766 15.4062C4.53906 15.2695 4.48047 15.1328 4.42188 14.9961C4.36979 14.8594 4.32096 14.7194 4.27539 14.5762L2.24414 14.0977C1.93164 14.0326 1.6875 13.8893 1.51172 13.668C1.33594 13.4401 1.24805 13.1667 1.24805 12.8477V11.0996C1.24805 10.7936 1.33594 10.5299 1.51172 10.3086C1.6875 10.0807 1.93164 9.93099 2.24414 9.85938L4.25586 9.38086C4.30143 9.2181 4.35352 9.06836 4.41211 8.93164C4.47721 8.79492 4.53581 8.66471 4.58789 8.54102L3.51367 6.75391C3.33789 6.48698 3.26302 6.21029 3.28906 5.92383C3.3151 5.63737 3.44206 5.38672 3.66992 5.17188L4.92969 3.92188C5.15755 3.71354 5.40495 3.5931 5.67188 3.56055C5.9388 3.52799 6.20573 3.58333 6.47266 3.72656L8.25977 4.83984C8.38997 4.77474 8.52995 4.71289 8.67969 4.6543C8.82943 4.58919 8.97917 4.5306 9.12891 4.47852L9.60742 2.44727C9.67904 2.14128 9.82552 1.90039 10.0469 1.72461C10.2747 1.54232 10.5449 1.45117 10.8574 1.45117H12.6445C12.957 1.45117 13.224 1.54232 13.4453 1.72461C13.6732 1.90039 13.8197 2.14128 13.8848 2.44727L14.373 4.49805C14.5293 4.55013 14.679 4.60547 14.8223 4.66406C14.9655 4.72266 15.099 4.78451 15.2227 4.84961L17.0391 3.72656C17.2995 3.58333 17.5632 3.53125 17.8301 3.57031C18.097 3.60286 18.3411 3.7168 18.5625 3.91211L19.832 5.17188C20.0599 5.38672 20.1836 5.63737 20.2031 5.92383C20.2292 6.21029 20.1608 6.48698 19.998 6.75391L18.9141 8.54102C18.9661 8.66471 19.0215 8.79492 19.0801 8.93164C19.1387 9.06836 19.194 9.2181 19.2461 9.38086L21.2676 9.85938C21.5736 9.93099 21.8145 10.0807 21.9902 10.3086C22.166 10.5299 22.2539 10.7936 22.2539 11.0996V12.8477C22.2539 13.1667 22.166 13.4401 21.9902 13.668C21.8145 13.8893 21.5736 14.0326 21.2676 14.0977L19.2266 14.5762C19.181 14.7194 19.1289 14.8594 19.0703 14.9961C19.0182 15.1328 18.9596 15.2695 18.8945 15.4062L19.9688 17.1543C20.1445 17.4147 20.2194 17.6947 20.1934 17.9941C20.1673 18.2871 20.0436 18.5443 19.8223 18.7656L18.5723 20.0059C18.3509 20.2272 18.097 20.3509 17.8105 20.377C17.5241 20.403 17.2507 20.3346 16.9902 20.1719L15.2227 19.0879C15.0924 19.1465 14.9557 19.2051 14.8125 19.2637C14.6693 19.3223 14.5228 19.3776 14.373 19.4297L13.8848 21.4512C13.8197 21.7637 13.6732 22.0078 13.4453 22.1836C13.224 22.3594 12.957 22.4473 12.6445 22.4473H10.8574ZM11.7559 15.3477C12.3743 15.3477 12.9408 15.1947 13.4551 14.8887C13.9694 14.5827 14.3796 14.1725 14.6855 13.6582C14.9915 13.1374 15.1445 12.5645 15.1445 11.9395C15.1445 11.321 14.9915 10.7578 14.6855 10.25C14.3796 9.73568 13.9694 9.32552 13.4551 9.01953C12.9408 8.71354 12.3743 8.56055 11.7559 8.56055C11.1309 8.56055 10.5612 8.71354 10.0469 9.01953C9.53906 9.32552 9.12891 9.73568 8.81641 10.25C8.51042 10.7578 8.35742 11.321 8.35742 11.9395C8.35742 12.5645 8.51042 13.1374 8.81641 13.6582C9.1224 14.1725 9.53255 14.5827 10.0469 14.8887C10.5612 15.1947 11.1309 15.3477 11.7559 15.3477Z" fill="white" fill-opacity="0.5"/>
</svg>
