<svg width="24" height="24" viewBox="0 0 24 24" fill="none" xmlns="http://www.w3.org/2000/svg">
<path d="M6.86914 23.0137C6.56315 23.0137 6.32227 22.9128 6.14648 22.7109C5.97721 22.5156 5.89258 22.2487 5.89258 21.9102V19.0977H5.55078C4.6263 19.0977 3.82227 18.9121 3.13867 18.541C2.45508 18.1699 1.92448 17.6361 1.54688 16.9395C1.17578 16.2428 0.990234 15.4062 0.990234 14.4297V6.7832C0.990234 5.80664 1.17253 4.97005 1.53711 4.27344C1.9082 3.57682 2.44206 3.04297 3.13867 2.67188C3.83529 2.29427 4.67513 2.10547 5.6582 2.10547H18.0215C19.0111 2.10547 19.8542 2.29427 20.5508 2.67188C21.2474 3.04297 21.778 3.57682 22.1426 4.27344C22.5137 4.97005 22.6992 5.80664 22.6992 6.7832V14.4297C22.6992 15.4062 22.5137 16.2428 22.1426 16.9395C21.778 17.6361 21.2474 18.1699 20.5508 18.541C19.8542 18.9121 19.0111 19.0977 18.0215 19.0977H11.7715L8.12891 22.3594C7.875 22.5938 7.65365 22.7598 7.46484 22.8574C7.28255 22.9616 7.08398 23.0137 6.86914 23.0137ZM11.6152 12.584C11.9147 12.584 12.1556 12.5124 12.3379 12.3691C12.5267 12.2194 12.6309 12.0371 12.6504 11.8223C12.6569 11.8027 12.6602 11.7832 12.6602 11.7637C12.6602 11.7376 12.6634 11.7181 12.6699 11.7051C12.696 11.4512 12.8001 11.2298 12.9824 11.041C13.1712 10.8522 13.4219 10.6569 13.7344 10.4551C14.2422 10.1296 14.6393 9.79427 14.9258 9.44922C15.2188 9.09766 15.3652 8.63216 15.3652 8.05273C15.3652 7.48633 15.209 7.0013 14.8965 6.59766C14.584 6.19401 14.1673 5.88477 13.6465 5.66992C13.1322 5.44857 12.5625 5.33789 11.9375 5.33789C11.0586 5.33789 10.3294 5.50716 9.75 5.8457C9.17708 6.17773 8.80273 6.58789 8.62695 7.07617C8.5944 7.16732 8.56836 7.25846 8.54883 7.34961C8.5293 7.44076 8.51953 7.53516 8.51953 7.63281C8.51953 7.89323 8.60742 8.10482 8.7832 8.26758C8.95898 8.43034 9.16732 8.51172 9.4082 8.51172C9.60352 8.51172 9.77279 8.47266 9.91602 8.39453C10.0592 8.31641 10.1829 8.20898 10.2871 8.07227L10.4238 7.87695C10.541 7.70117 10.668 7.55794 10.8047 7.44727C10.9414 7.33008 11.0879 7.24219 11.2441 7.18359C11.4069 7.125 11.5827 7.0957 11.7715 7.0957C12.1426 7.0957 12.4453 7.19661 12.6797 7.39844C12.9141 7.60026 13.0312 7.85742 13.0312 8.16992C13.0312 8.48242 12.9238 8.73958 12.709 8.94141C12.4941 9.13672 12.1751 9.3776 11.752 9.66406C11.3939 9.91797 11.0977 10.1882 10.8633 10.4746C10.6354 10.7546 10.5215 11.1126 10.5215 11.5488C10.5215 11.5684 10.5215 11.5879 10.5215 11.6074C10.5215 11.6204 10.5215 11.6335 10.5215 11.6465C10.5215 12.2715 10.8861 12.584 11.6152 12.584ZM11.6055 15.7773C11.957 15.7773 12.2565 15.6699 12.5039 15.4551C12.7513 15.2337 12.875 14.9505 12.875 14.6055C12.875 14.2669 12.7513 13.987 12.5039 13.7656C12.2565 13.5443 11.957 13.4336 11.6055 13.4336C11.2474 13.4336 10.9447 13.5443 10.6973 13.7656C10.4499 13.987 10.3262 14.2669 10.3262 14.6055C10.3262 14.9505 10.4499 15.2337 10.6973 15.4551C10.9512 15.6699 11.2539 15.7773 11.6055 15.7773Z" fill="white" fill-opacity="0.5"/>
</svg>
