<svg width="22" height="22" viewBox="0 0 22 22" fill="none" xmlns="http://www.w3.org/2000/svg">
<path d="M10.9336 21.1445C9.54036 21.1445 8.22852 20.8776 6.99805 20.3438C5.76758 19.8164 4.68359 19.084 3.74609 18.1465C2.80859 17.209 2.07292 16.1283 1.53906 14.9043C1.01172 13.6738 0.748047 12.3587 0.748047 10.959C0.748047 9.56576 1.01172 8.25716 1.53906 7.0332C2.07292 5.80273 2.80534 4.71875 3.73633 3.78125C4.67383 2.84375 5.75781 2.11133 6.98828 1.58398C8.21875 1.05013 9.5306 0.783203 10.9238 0.783203C12.3171 0.783203 13.6289 1.05013 14.8594 1.58398C16.0964 2.11133 17.1803 2.84375 18.1113 3.78125C19.0488 4.71875 19.7845 5.80273 20.3184 7.0332C20.8522 8.25716 21.1191 9.56576 21.1191 10.959C21.1191 12.3587 20.8522 13.6738 20.3184 14.9043C19.7845 16.1283 19.0488 17.209 18.1113 18.1465C17.1803 19.084 16.0996 19.8164 14.8691 20.3438C13.6387 20.8776 12.3268 21.1445 10.9336 21.1445ZM6.55859 11.623C6.55859 11.7728 6.60742 11.8965 6.70508 11.9941C6.80924 12.0853 6.9362 12.1309 7.08594 12.1309H10.3574L8.60938 16.7598C8.51823 17.0007 8.52474 17.196 8.62891 17.3457C8.73307 17.4954 8.87956 17.5736 9.06836 17.5801C9.25716 17.5866 9.42969 17.4954 9.58594 17.3066L15.0156 10.5879C15.1328 10.4512 15.1914 10.3112 15.1914 10.168C15.1914 10.0182 15.1393 9.89779 15.0352 9.80664C14.9375 9.70898 14.8171 9.66016 14.6738 9.66016H11.3926L13.1406 5.02148C13.2318 4.78711 13.2253 4.59505 13.1211 4.44531C13.0169 4.29557 12.8704 4.21745 12.6816 4.21094C12.4993 4.20443 12.3268 4.29557 12.1641 4.48438L6.73438 11.1934C6.61719 11.3301 6.55859 11.4733 6.55859 11.623Z" />
</svg>
