<svg width="15" height="9" viewBox="0 0 15 9" fill="none" xmlns="http://www.w3.org/2000/svg">
<path d="M7.51562 8.23438C7.20833 8.23438 6.92708 8.10938 6.67188 7.85938L0.789062 1.84375C0.690104 1.73958 0.614583 1.6276 0.5625 1.50781C0.515625 1.38802 0.492188 1.25521 0.492188 1.10938C0.492188 0.916667 0.539062 0.739583 0.632812 0.578125C0.726562 0.416667 0.851562 0.289062 1.00781 0.195312C1.16927 0.101562 1.34635 0.0546875 1.53906 0.0546875C1.83073 0.0546875 2.08594 0.161458 2.30469 0.375L7.875 6.09375H7.16406L12.7188 0.375C12.9375 0.161458 13.1927 0.0546875 13.4844 0.0546875C13.6771 0.0546875 13.8516 0.101562 14.0078 0.195312C14.1693 0.289062 14.2969 0.416667 14.3906 0.578125C14.4844 0.739583 14.5312 0.916667 14.5312 1.10938C14.5312 1.39583 14.4297 1.63802 14.2266 1.83594L8.35938 7.85938C8.23438 7.98438 8.10156 8.07812 7.96094 8.14062C7.82552 8.19792 7.67708 8.22917 7.51562 8.23438Z" fill="white" fill-opacity="0.9"/>
</svg>
